<svg width="42" height="42" viewBox="0 0 42 42" fill="none" xmlns="http://www.w3.org/2000/svg">
<path fill-rule="evenodd" clip-rule="evenodd" d="M4.4086 13.6898C3.5 15.3497 3.5 17.3521 3.5 21.3568V24.0187C3.5 30.8451 3.5 34.2585 5.55025 36.3792C7.60051 38.5 10.9003 38.5 17.5 38.5H24.5C31.0996 38.5 34.3996 38.5 36.4497 36.3792C38.5 34.2585 38.5 30.8451 38.5 24.0187V21.3568C38.5 17.3521 38.5 15.3497 37.5914 13.6898C36.6828 12.0299 35.0229 10.9996 31.703 8.93921L28.203 6.76702C24.6935 4.58901 22.9388 3.5 21 3.5C19.0612 3.5 17.3064 4.58901 13.7971 6.76702L10.2971 8.93923C6.97716 10.9996 5.3172 12.0299 4.4086 13.6898ZM19.6875 31.5C19.6875 32.2248 20.2751 32.8125 21 32.8125C21.7248 32.8125 22.3125 32.2248 22.3125 31.5V26.25C22.3125 25.5251 21.7248 24.9375 21 24.9375C20.2751 24.9375 19.6875 25.5251 19.6875 26.25V31.5Z" fill="#465362"/>
</svg>
